<svg width="107" height="101" viewBox="0 0 107 101" fill="none" xmlns="http://www.w3.org/2000/svg">
<path d="M91.0554 35.7206V14.7794H68.9399L53.3318 0L37.7236 14.7794H15.6081V35.7206L0 50.5L15.6081 65.2794V86.2206H37.7236L53.3318 101L68.9399 86.2206H91.0554V65.2794L106.664 50.5L91.0554 35.7206ZM81.6245 61.5734V77.2904H65.0261L53.3318 88.3638L41.6375 77.2904H25.0391V61.5734L13.3447 50.5L25.0391 39.4266V23.7095H41.6375L53.3318 12.6362L65.0261 23.7095H81.6245V39.4266L93.3188 50.5L81.6245 61.5734ZM54.6993 28.1746C51.2098 28.1746 47.8619 28.9337 44.8911 30.2286C53.0017 33.756 58.6602 41.5252 58.6602 50.5C58.6602 59.4748 53.0017 67.244 44.8911 70.7714C47.8619 72.0663 51.2098 72.8254 54.6993 72.8254C67.7139 72.8254 78.2765 62.8236 78.2765 50.5C78.2765 38.1764 67.7139 28.1746 54.6993 28.1746Z" fill="black"/>
</svg>
